#!OML:ASF F:\VICON\USERDATA\INSTALL\rory3\rory3.ASF
:FULLY-SPECIFIED
:DEGREES
1
root -0.42999070759671365 18.192492887265644 -35.8887820305963 7.924996677284304 -6.28386482154575 1.6473667922530904
lfemur 15.857382870698299 -4.3214407018655265 -31.267485080835726
ltibia 33.785708371295286
lfoot 29.74088637480173 -23.22488381584713
ltoes -13.245095582958246
rfemur -40.99518782668106 3.873416451512621 22.490509572932734
rtibia 26.429812353316677
rfoot -1.5824168297544072 -2.1479487222319396
rtoes -20.59288618487763
lowerback 13.74050532602626 -0.9074461991767114 -3.2893762829830457
upperback -1.1525660944531266 -1.6373960118506519 1.3591706399936818
thorax -8.841103300694282 -0.5939071595249115 3.6681449924185627
lowerneck -18.28860592616715 -1.5193279798452588 -1.871147423793492
upperneck 13.183194494047026 -1.7164274537654727 0.8344474032043034
head 7.053508472864278 -0.8419897379552357 0.38273320407160755
lclavicle -6.477656196834876e-16 -4.860687345149948e-15
lhumerus -41.17330647565987 -13.963397677882359 94.32490975196667
lradius 122.452985955176
lwrist 37.41239214132044
lhand -24.880723717796798 -0.5495244921389885
lfingers 7.125019999999998
lthumb 1.6267363858384813 29.424002294053622
rclavicle -6.477656196834876e-16 -4.860687345149948e-15
rhumerus -67.26167916818059 5.147373593080535 -90.9746200496698
rradius 105.25800623250392
rwrist -13.459301030846142
rhand -21.74608487437031 41.110391945876444
rfingers 7.125019999999998
rthumb 4.653925039465419 11.181491929406395
2
root -0.41936005431983164 18.146993634252357 -34.80598207770936 7.517528873155466 -4.75020812806641 1.767676375001171
lfemur 14.14438365641773 -5.413568065584148 -30.742586314890502
ltibia 41.798205302501216
lfoot 30.367686395422098 -23.544682811296987
ltoes -8.298510271887405
rfemur -40.377788381095684 1.970530103726334 23.2560085639984
rtibia 24.567413860014092
rfoot -1.9452767227311347 -3.7476958501997677
rtoes -23.335483927229564
lowerback 13.459306469476246 -1.7050998714082022 -2.570798207661448
upperback -0.776830167591836 -2.56701109520046 1.3877204185373515
thorax -8.219578642751056 -1.097119602082316 3.4554059334347205
lowerneck -17.88140781725608 -1.6522069191502795 -2.253380120663677
upperneck 12.406297671796638 -1.8187069397224338 0.9277189068106371
head 6.73853276030927 -0.9017460388097689 0.4678778637620068
lclavicle -6.477656191019324e-16 -4.860687381998591e-15
lhumerus -41.37650614315015 -13.443598764871032 94.29710995103042
lradius 120.43398884065888
lwrist 37.91689173822061
lhand -25.931819796998976 -0.7375378685980324
lfingers 7.125019999999998
lthumb 0.6116132517911446 29.24130293196736
rclavicle -6.477656191019324e-16 -4.860687381998591e-15
rhumerus -65.36948139955045 4.5418749156043345 -90.3693215323022
rradius 104.28900719279588
rwrist -13.789400274734891
rhand -20.19709226108756 40.31789323192053
rfingers 7.125019999999998
rthumb 6.149527674562535 10.42719342701021
3
root -0.4137302552677682 18.062894933002458 -33.73248264958126 6.820782829648145 -4.800767651394211 1.1951986066884965
lfemur 11.940784882017464 -4.384750548086826 -29.475788342636303
ltibia 49.990702406624244
lfoot 34.72218432802393 -23.293183187871904
ltoes -2.9317852284922923
rfemur -39.247989778284904 1.0442718527241324 24.96430579753118
rtibia 24.652212056572367
rfoot -0.6173911312303448 -4.578984269606014
rtoes -22.14928525948888
lowerback 14.28660299180717 -1.1154353151183414 -1.6060212189475438
upperback 0.04670629345680044 -1.6576758265960185 1.0998426529635177
thorax -7.900571392737513 -0.7172415749661558 2.427560990216343
lowerneck -21.380591418538586 -2.1422134737323772 -0.9455180360167936
upperneck 13.276494168326439 -2.7235725525644683 0.5813426616561048
head 7.595121092466423 -1.2881019404050855 0.005133407373816734
lclavicle -6.47765704386755e-16 -4.860687356994138e-15
lhumerus -40.27630742539213 -15.217295009729819 94.16371033397247
lradius 117.5579922081167
lwrist 38.0398916870912
lhand -26.390118284478245 -0.010034020423955042
lfingers 7.125019999999998
lthumb 0.16893659750417278 29.969600432630738
rclavicle -6.47765704386755e-16 -4.860687356994138e-15
rhumerus -62.46308536264398 1.6175517588393085 -89.82562263156665
rradius 103.4450080032609
rwrist -13.305701402695792
rhand -19.088297581508744 40.17529350768164
rfingers 7.125019999999998
rthumb 7.219872400243205 10.318493597102147
4
root -0.408351421859584 17.901397477266208 -32.68958340903738 6.040546974619475 -5.972105169237899 0.22822730448190476
lfemur 9.258706057819612 -2.296765849077066 -27.688590568122034
ltibia 58.80229915265206
lfoot 37.8400826401478 -20.875586172535535
ltoes -2.5781255619137022
rfemur -38.634190286686255 -0.09525057173329676 27.50530212710557
rtibia 27.628411902918252
rfoot 0.3931871663431954 -2.3683383965091673
rtoes -21.232384264640274
lowerback 14.235803241008698 -1.0305660717103664 -1.1496825527512575
upperback 0.2709474834490927 -1.428517213307055 1.6272185574709392
thorax -7.639763691210186 -0.6194848324018314 2.678809721843885
lowerneck -19.026402461293532 -1.8892753739792472 -1.905156768444071
upperneck 12.028799187333153 -2.216495009958244 1.0306893116438234
head 6.808761814488831 -1.062034368916637 0.3941950231195687
lclavicle -6.477657415024084e-16 -4.8606873629162415e-15
lhumerus -41.20990665817733 -13.068599552932858 94.40970953693254
lradius 114.39199576053034
lwrist 37.55379213088893
lhand -26.17951901406503 0.35571545166410173
lfingers 7.125019999999998
lthumb 0.37232984994315643 30.33509919079449
rclavicle -6.477657415024084e-16 -4.8606873629162415e-15
rhumerus -60.89348665274448 2.4320297893620832 -89.75632294044564
rradius 102.33200949378288
rwrist -12.899602290703633
rhand -19.500095652573474 40.52479306637365
rfingers 7.125019999999998
rthumb 6.82238435391434 10.654693013764977
5
root -0.4017526245751828 17.68600085043518 -31.64688395533508 5.074032252210893 -6.760543469713432 -0.5501106994556344
lfemur 6.025577160068249 0.15710195313003594 -25.45799408648687
ltibia 67.87389547027537
lfoot 38.460783010003745 -19.47648856458612
ltoes 0.8781703286007705
rfemur -38.344989499448005 -0.6084970410228676 29.04549979898586
rtibia 33.23680875120091
rfoot -0.047954011980766875 3.1704519856697866
rtoes -3.051606733563023
lowerback 15.612397562844018 -0.5740272974572697 -0.11731345747432953
upperback 0.4783732712283518 -0.6632112202100066 1.4209901578502222
thorax -8.243288465254135 -0.28666822340792614 1.7385943292689436
lowerneck -20.316596424994067 -2.160393307843056 -1.559403381959132
upperneck 13.331193976103837 -2.737182304980191 1.4182472036367744
head 7.459062939269705 -1.247762310129331 0.3888661137645461
lclavicle -6.477656322493583e-16 -4.860687327383655e-15
lhumerus -41.476506720998245 -13.250599160403121 94.34970967509598
lradius 110.8850000211952
lwrist 37.08319244737721
lhand -26.393418200464676 -0.21023164249530804
lfingers 7.125019999999998
lthumb 0.16578360024848848 29.76940110673654
rclavicle -6.477656322493583e-16 -4.860687327383655e-15
rhumerus -58.57248961296197 1.301062317410672 -90.31302177617302
rradius 101.0890110283657
rwrist -12.516103135489995
rhand -20.13039257882746 41.14569173730459
rfingers 7.125019999999998
rthumb 6.21389735748749 11.256891783770776
6
root -0.41262828270173313 17.462704349625383 -30.599985996066746 4.301176467212889 -7.921181504160543 -1.0719927460111132
lfemur 2.8898588265307943 2.952690929935936 -23.299497245713713
ltibia 76.36769332839137
lfoot 39.23218198597237 -20.67148687952583
ltoes 7.307504865402597
rfemur -37.84749028764658 0.6982744905872798 29.56669899713036
rtibia 40.43900673299781
rfoot -4.785975060348475 2.63538274012505
rtoes 6.635057635039015
lowerback 16.63629336816181 -0.4292246393092547 -0.5811820905117187
upperback -0.14668997403327122 -0.47105020675789155 2.2175739846526326
thorax -9.500577629086875 -0.13813718201015807 2.8514788523378036
lowerneck -17.502109627256992 -1.850425549795125 -3.0949840342303814
upperneck 13.02299515269484 -2.0230359022351334 1.7092356599322909
head 6.896350618691911 -0.9741492960009435 0.8367039962044611
lclavicle -6.477657387099951e-16 -4.8606873405438835e-15
lhumerus -43.77850479511895 -10.244905422141168 95.45790571015365
lradius 107.67200388803242
lwrist 35.705693517954266
lhand -25.749120717820677 0.6219155497490138
lfingers 7.125019999999998
lthumb 0.788026568554983 30.600198288548935
rclavicle -6.477657387099951e-16 -4.8606873405438835e-15
rhumerus -58.066490316963964 3.58797740727966 -90.51302100203476
rradius 100.40301082243151
rwrist -12.677702779000855
rhand -21.113788012625797 41.46419109153368
rfingers 7.125019999999998
rthumb 5.264491986377572 11.549491224249033
7
root -0.4374744577159222 17.264007477924146 -29.570084827797256 3.509300750308667 -7.702632015995475 -1.2587019939007875
lfemur -0.5908266645076772 4.323017527756381 -21.027500699402456
ltibia 84.29279049437805
lfoot 36.22108272108731 -19.66658843572593
ltoes 6.7510456416592515
rfemur -36.79779066104034 2.148429762399704 29.615898948498373
rtibia 47.07030502251499
rfoot -9.859432022520402 -0.26750977057017167
rtoes 10.73199492064312
lowerback 17.468389818948495 -0.31890566288160216 -0.512598258197924
upperback 0.09317618129334737 -0.299478203128705 2.3229431673449397
thorax -9.71593576044112 -0.05574226878405292 2.8972886697371205
lowerneck -17.84830797695495 -2.0026645157826732 -3.1418231780811374
upperneck 13.35819379828645 -2.1957850423607432 1.628866163777006
head 7.067758284405044 -1.0658943248048134 0.7961556449176024
lclavicle -6.477657491815318e-16 -4.860687374102354e-15
lhumerus -44.46590433729986 -9.330517333945343 95.88600416604918
lradius 104.31400778685106
lwrist 36.165293138353405
lhand -27.083615975659008 0.6741373581288075
lfingers 7.125019999999998
lthumb -0.500864822339441 30.653298130892324
rclavicle -6.477657491815318e-16 -4.860687374102354e-15
rhumerus -55.06769401693719 4.165135979472718 -91.35851914687234
rradius 99.57571236613653
rwrist -12.216603912767592
rhand -21.806384612349678 40.86469213996994
rfingers 7.125019999999998
rthumb 4.595715272834514 10.934592479981337
